<svg width="46" height="36" xmlns="http://www.w3.org/2000/svg" xml:space="preserve" version="1.1">
 <g id="Layer_1">
  <title>Layer 1</title>
  <path fill-rule="nonzero" fill="rgb(94%,94%,94%)" d="m1,1.38672l44,0l0,33.60156l-44,0l0,-33.60156zm0,0"/>
  <path fill-rule="nonzero" fill="rgb(37%,37%,37%)" d="m45.80078,35.78516l-45.60156,0l0,-35.19922l45.60156,0l0,35.19922zm-44,-1.59766l42.39844,0l0,-32l-42.39844,0l0,32zm0,0"/>
  <path fill-rule="nonzero" fill="rgb(37%,37%,37%)" d="m4.19922,4.58594l37.60156,0l0,27.19922l-37.60156,0l0,-27.19922zm0,0"/>
  <path fill-rule="nonzero" fill="rgb(94%,94%,94%)" d="m42.59766,32.58594l-39.19922,0l0,-28.80078l39.19922,0l0,28.80078zm-37.59766,-1.59766l36,0l0,-25.60156l-36,0l0,25.60156zm0,0"/>
  <path fill-rule="nonzero" fill="rgb(82%,82%,82%)" d="m15.85547,11.44141c0,2.01953 -1.63672,3.65625 -3.65625,3.65625c-2.01953,0 -3.65625,-1.63672 -3.65625,-3.65625c0,-2.01953 1.63672,-3.65625 3.65625,-3.65625c2.01953,0 3.65625,1.63672 3.65625,3.65625zm0,0"/>
  <path fill-rule="nonzero" fill="rgb(45%,45%,45%)" d="m41,23.875l-0.80078,-0.88672l-9.60156,-8.80078l-8.39844,9.19922l7.60156,7.60156l11.19922,0l0,-7.11328zm0,0"/>
  <path fill-rule="nonzero" fill="rgb(54%,54%,54%)" d="m5,30.98828l24.80078,0l-11.98828,-11.98828l-12.8125,11.1875l0,0.80078zm0,0"/>
 </g>

</svg>