<svg width="54.00000000000001" height="54.00000000000001" xmlns="http://www.w3.org/2000/svg" xml:space="preserve" version="1.1">

 <g>
  <title>Layer 1</title>
  <g id="svg_2">
   <path id="svg_3" fill="#ECF0F1" d="m19.00593,42.052l-7.907,4.313c-0.464,0.253 -0.881,0.564 -1.269,0.903c4.61,3.887 10.561,6.232 17.063,6.232c6.454,0 12.367,-2.31 16.964,-6.144c-0.424,-0.358 -0.884,-0.68 -1.394,-0.934l-8.467,-4.233c-1.094,-0.547 -1.785,-1.665 -1.785,-2.888l0,-3.322c0.238,-0.271 0.51,-0.619 0.801,-1.03c1.154,-1.63 2.027,-3.423 2.632,-5.304c1.086,-0.335 1.886,-1.338 1.886,-2.53l0,-3.546c0,-0.78 -0.347,-1.477 -0.886,-1.965l0,-5.126c0,0 1.053,-7.977 -9.75,-7.977s-9.75,7.977 -9.75,7.977l0,5.126c-0.54,0.488 -0.886,1.185 -0.886,1.965l0,3.546c0,0.934 0.491,1.756 1.226,2.231c0.886,3.857 3.206,6.633 3.206,6.633l0,3.24c-0.001,1.18 -0.647,2.267 -1.684,2.833z"/>
   <g id="svg_4">
    <path id="svg_5" fill="#556080" d="m27.34593,0.504c-14.633,-0.25 -26.699,11.41 -26.949,26.043c-0.142,8.297 3.556,15.754 9.444,20.713c0.385,-0.336 0.798,-0.644 1.257,-0.894l7.907,-4.313c1.037,-0.566 1.683,-1.653 1.683,-2.835l0,-3.24c0,0 -2.321,-2.776 -3.206,-6.633c-0.734,-0.475 -1.226,-1.296 -1.226,-2.231l0,-3.546c0,-0.78 0.347,-1.477 0.886,-1.965l0,-5.126c0,0 -1.053,-7.977 9.75,-7.977s9.75,7.977 9.75,7.977l0,5.126c0.54,0.488 0.886,1.185 0.886,1.965l0,3.546c0,1.192 -0.8,2.195 -1.886,2.53c-0.605,1.881 -1.478,3.674 -2.632,5.304c-0.291,0.411 -0.563,0.759 -0.801,1.03l0,3.322c0,1.223 0.691,2.342 1.785,2.888l8.467,4.233c0.508,0.254 0.967,0.575 1.39,0.932c5.71,-4.762 9.399,-11.882 9.536,-19.9c0.252,-14.633 -11.407,-26.699 -26.041,-26.949z"/>
   </g>
  </g>
  <g id="svg_11"/>
  <g id="svg_12"/>
  <g id="svg_13"/>
  <g id="svg_14"/>
  <g id="svg_15"/>
  <g id="svg_16"/>
  <g id="svg_17"/>
  <g id="svg_18"/>
  <g id="svg_19"/>
  <g id="svg_20"/>
  <g id="svg_21"/>
  <g id="svg_22"/>
  <g id="svg_23"/>
  <g id="svg_24"/>
  <g id="svg_25"/>
 </g>
</svg>