<svg width="60" height="61" viewBox="0 0 60 61" fill="none" xmlns="http://www.w3.org/2000/svg">
<path d="M1.15436 38.4302C1.15436 38.4302 -1.31658 36.2583 0.971783 33.9115C3.26015 31.568 5.73285 33.7415 5.73285 33.7415L17.203 43.8254C17.0222 43.6639 18.0007 42.3467 17.8553 42.2188L1.93428 28.2235C1.93428 28.2235 -0.536658 26.0516 1.75171 23.7081C4.04184 21.3613 6.51278 23.5349 6.51278 23.5349L21.4873 36.6991C21.4518 36.6688 22.5668 35.4693 22.5455 35.4508L5.18514 20.1887C5.18514 20.1887 2.7142 18.0168 5.00256 15.6716C7.2927 13.3282 9.76363 15.5 9.76363 15.5L27.1222 30.7621C27.1435 30.779 28.3329 29.6451 28.3683 29.677L12.1424 15.4126C12.1424 15.4126 9.67146 13.2407 11.9598 10.8955C14.25 8.55202 16.7209 10.7239 16.7209 10.7239C16.7209 10.7239 28.7955 21.3394 33.8774 25.806C38.9575 30.2726 40.1026 29.1 40.1026 29.1L35.5153 25.0675L30.2171 20.4124C30.2171 20.4124 27.7462 18.2406 30.0363 15.8937C32.3264 13.5485 34.7956 15.7204 34.7956 15.7204L48.3857 27.6683C56.5714 34.8653 57.0624 47 49.4776 54.7707C41.8947 62.5413 29.1075 63.004 20.9201 55.8087C20.4876 55.4285 19.7112 54.6933 19.7449 54.6579L19.6864 54.7219L1.15436 38.4302Z" fill="#C1694F"/>
<path d="M6.29498 35.1514C6.29498 35.1514 3.82404 32.9795 6.11241 30.6343C8.40077 28.2875 10.8717 30.4594 10.8717 30.4594L22.3437 40.5466C22.1611 40.3851 23.1413 39.0678 22.996 38.94L7.0749 24.9447C7.0749 24.9447 4.60397 22.7728 6.89233 20.4276C9.1807 18.0825 11.6516 20.2543 11.6516 20.2543L26.6262 33.4203C26.5925 33.3883 27.7074 32.1905 27.6861 32.172L10.3258 16.9082C10.3258 16.9082 7.85483 14.738 10.1432 12.3928C12.4316 10.0477 14.9025 12.2195 14.9025 12.2195L32.2611 27.48C32.2841 27.5001 33.4717 26.3662 33.5072 26.3965L17.283 12.1321C17.283 12.1321 14.8121 9.96017 17.1005 7.61669C19.3888 5.27153 21.8598 7.44341 21.8598 7.44341C21.8598 7.44341 33.9362 18.0606 39.0181 22.5272C44.0964 26.9921 45.2433 25.8195 45.2433 25.8195L40.6541 21.7869L35.3577 17.1319C35.3577 17.1319 32.8886 14.9601 35.1752 12.6149C37.4653 10.2697 39.9362 12.4416 39.9362 12.4416L53.5246 24.3878C61.712 31.5848 62.2013 43.7212 54.6183 51.4901C47.0335 59.2608 34.2481 59.7235 26.0607 52.5265C25.6264 52.1479 24.8518 51.4128 24.8855 51.3791L24.8252 51.443L6.29498 35.1514Z" fill="#D99E82"/>
<path d="M41.5933 11.7822C41.2157 11.7822 40.8329 11.6678 40.512 11.4323C39.7356 10.8637 39.5938 9.80717 40.193 9.07199L45.4716 2.5866C46.0672 1.85142 47.1821 1.71347 47.9585 2.28378C48.7331 2.85073 48.8749 3.90723 48.2776 4.64241L42.9971 11.1278C42.6497 11.5568 42.125 11.7822 41.5933 11.7822Z" fill="#FFAC33"/>
<path d="M31.7716 12.6924C30.7931 12.6924 29.999 11.9387 29.999 11.0101V2.5984C29.999 1.66975 30.7931 0.916066 31.7716 0.916066C32.7518 0.916066 33.5441 1.66975 33.5441 2.5984V11.0101C33.5441 11.9387 32.7518 12.6924 31.7716 12.6924Z" fill="#FFAC33"/>
<path d="M48.464 17.1792C47.7407 17.1792 47.0601 16.7552 46.7995 16.0705C46.4627 15.1974 46.9396 14.2334 47.8577 13.9155L55.9813 11.111C56.9049 10.793 57.9187 11.2456 58.252 12.117C58.5888 12.9902 58.112 13.9558 57.1938 14.2738L49.0702 17.0766C48.8699 17.1456 48.6642 17.1792 48.464 17.1792Z" fill="#FFAC33"/>
</svg>
