<svg width="60" height="60" viewBox="0 0 60 60" fill="none" xmlns="http://www.w3.org/2000/svg">
<path d="M60 30C60 37.9564 56.8391 45.5872 51.2134 51.2134C45.5872 56.8391 37.9564 60 30 60C22.0435 60 14.4129 56.8391 8.78681 51.2134C3.16071 45.5872 0 37.9564 0 30C0 22.0435 3.16071 14.4129 8.78681 8.78681C14.4129 3.16071 22.0435 0 30 0C37.9564 0 45.5872 3.16071 51.2134 8.78681C56.8391 14.4129 60 22.0435 60 30Z" fill="url(#paint0_linear)"/>
<path d="M11.25 30.03C11.25 37.5863 15.0225 52.5 30 52.5C44.9738 52.5 48.75 37.5863 48.75 30.03C48.75 29.4338 42.7125 26.25 30 26.25C17.2875 26.25 11.25 29.4338 11.25 30.03Z" fill="url(#paint1_linear)"/>
<path d="M17.0288 46.875C20.0438 50.6062 24.1801 52.5 30.0376 52.5C35.8988 52.5 39.9937 50.6062 43.0087 46.875C40.9425 44.67 37.0126 41.25 30.0376 41.25C23.0626 41.25 19.0988 44.67 17.0288 46.875Z" fill="url(#paint2_linear)"/>
<path d="M23.2986 15.5392C24.2849 16.2442 25.1811 17.2454 24.8361 18.4942C24.5699 19.4467 24.1086 19.8779 23.2536 19.8854C20.3286 19.9267 16.8486 20.8417 13.8561 22.1804C13.6124 22.2892 13.1174 22.5104 12.6111 22.4992C12.1461 22.4879 11.6699 22.2817 11.3849 21.6104C11.1336 21.0217 11.1111 20.1554 12.4199 19.3679C14.4636 18.1304 17.1336 17.5679 19.5786 17.1029C18.0433 15.9684 16.3899 15.0028 14.6474 14.2229C13.0461 13.4954 13.2224 12.5092 13.4361 11.9729C13.9124 10.7842 15.7199 11.2379 17.4786 12.0704C19.5301 13.0286 21.4799 14.1906 23.2986 15.5392ZM36.7124 15.5392C38.5283 14.1901 40.4756 13.0279 42.525 12.0704C44.2875 11.2379 46.0875 10.7842 46.5675 11.9729C46.7812 12.5092 46.9575 13.4954 45.3563 14.2229C43.6155 15.002 41.9647 15.9677 40.4325 17.1029C42.87 17.5642 45.5438 18.1304 47.5837 19.3679C48.8925 20.1554 48.8662 21.0179 48.6187 21.6104C48.33 22.2854 47.8575 22.4879 47.3925 22.4992C46.8862 22.5104 46.3912 22.2892 46.1475 22.1804C43.1587 20.8417 39.6787 19.9304 36.7574 19.8854C35.9024 19.8779 35.4411 19.4467 35.1749 18.4979C34.8336 17.2492 35.7261 16.2479 36.7124 15.5429V15.5392Z" fill="#2A3755"/>
<defs>
<linearGradient id="paint0_linear" x1="30" y1="6.15" x2="30" y2="60" gradientUnits="userSpaceOnUse">
<stop stop-color="#FEEA70"/>
<stop offset="1" stop-color="#F69B30"/>
</linearGradient>
<linearGradient id="paint1_linear" x1="30" y1="26.25" x2="30" y2="52.5" gradientUnits="userSpaceOnUse">
<stop stop-color="#472315"/>
<stop offset="1" stop-color="#8B3A0E"/>
</linearGradient>
<linearGradient id="paint2_linear" x1="30.0187" y1="41.25" x2="30.0187" y2="50.4637" gradientUnits="userSpaceOnUse">
<stop stop-color="#FC607C"/>
<stop offset="1" stop-color="#D91F3A"/>
</linearGradient>
</defs>
</svg>
