<svg width="60" height="60" viewBox="0 0 60 60" fill="none" xmlns="http://www.w3.org/2000/svg">
<path d="M30 0C22.0435 0 14.4129 3.16071 8.78681 8.78681C3.16071 14.4129 0 22.0435 0 30C0 37.9564 3.16071 45.5872 8.78681 51.2134C14.4129 56.8391 22.0435 60 30 60C37.9564 60 45.5872 56.8391 51.2134 51.2134C56.8391 45.5872 60 37.9564 60 30C60 22.0435 56.8391 14.4129 51.2134 8.78681C45.5872 3.16071 37.9564 0 30 0Z" fill="url(#paint0_linear)"/>
<path d="M45.6075 27.5175C46.2675 27.9788 46.875 28.4363 46.875 30.045C46.875 31.6575 46.0163 32.31 45.0975 32.7638C45.4729 33.3761 45.5929 34.1114 45.4312 34.8113C45.1425 36.1012 43.9613 37.1025 42.9112 37.3987C43.365 38.1262 43.5075 38.8425 42.9675 39.7238C42.2738 40.83 41.67 41.25 39 41.25H28.125C24.42 41.25 22.5 39.2025 22.5 37.5V28.7437C22.5 24.1312 28.0012 20.2125 28.0012 17.0062L27.6038 13.0125C27.585 12.7688 27.6338 12.1725 27.8213 12C28.1213 11.7038 28.95 11.25 30.2025 11.25C31.02 11.25 31.5638 11.4037 32.205 11.7112C34.3838 12.75 34.95 15.3787 34.95 17.4937C34.95 18.51 33.3975 21.555 33.1875 22.6087C33.1875 22.6087 36.4388 21.8888 40.2337 21.8625C44.2125 21.84 46.7925 22.575 46.7925 25.02C46.7925 25.9987 45.9712 26.9812 45.6075 27.5175ZM13.5 26.25H16.5C17.0967 26.25 17.669 26.487 18.091 26.909C18.513 27.331 18.75 27.9033 18.75 28.5V42.75C18.75 43.3466 18.513 43.9189 18.091 44.3411C17.669 44.763 17.0967 45 16.5 45H13.5C12.9033 45 12.331 44.763 11.909 44.3411C11.487 43.9189 11.25 43.3466 11.25 42.75V28.5C11.25 27.9033 11.487 27.331 11.909 26.909C12.331 26.487 12.9033 26.25 13.5 26.25Z" fill="white"/>
<defs>
<linearGradient id="paint0_linear" x1="30" y1="0" x2="30" y2="60" gradientUnits="userSpaceOnUse">
<stop stop-color="#18AFFF"/>
<stop offset="1" stop-color="#0062DF"/>
</linearGradient>
</defs>
</svg>
