<svg width="60" height="60" viewBox="0 0 60 60" fill="none" xmlns="http://www.w3.org/2000/svg">
<path d="M60 30C60 37.9564 56.8391 45.5872 51.2134 51.2134C45.5872 56.8391 37.9564 60 30 60C22.0435 60 14.4129 56.8391 8.78681 51.2134C3.16071 45.5872 0 37.9564 0 30C0 22.0435 3.16071 14.4129 8.78681 8.78681C14.4129 3.16071 22.0435 0 30 0C37.9564 0 45.5872 3.16071 51.2134 8.78681C56.8391 14.4129 60 22.0435 60 30Z" fill="url(#paint0_linear)"/>
<path d="M19.999 47.8688C19.999 48.3825 20.3515 48.75 20.9365 48.75C22.2528 48.75 24.0715 46.4062 30.0003 46.4062C35.929 46.4062 37.7515 48.75 39.064 48.75C39.649 48.75 40.0015 48.3825 40.0015 47.8688C40.0015 46.38 36.8553 41.25 30.0003 41.25C23.1453 41.25 19.999 46.38 19.999 47.8688Z" fill="url(#paint1_linear)"/>
<path d="M13.4954 32.9999C13.4954 29.9624 15.4042 27.5024 17.7479 27.5024C20.0992 27.5024 22.0004 29.9624 22.0004 32.9999C22.0004 34.2674 21.6667 35.4374 21.1079 36.3674C20.8582 36.787 20.4523 37.0904 19.9792 37.2112C19.4542 37.3499 18.6554 37.4999 17.7479 37.4999C16.8367 37.4999 16.0492 37.3499 15.5167 37.2112C15.0446 37.0903 14.64 36.7868 14.3917 36.3674C13.7934 35.3469 13.4836 34.1829 13.4954 32.9999ZM37.9979 32.9999C37.9979 29.9624 39.9029 27.5024 42.2466 27.5024C44.5979 27.5024 46.4991 29.9624 46.4991 32.9999C46.4991 34.2674 46.1654 35.4374 45.6066 36.3674C45.4832 36.5755 45.3201 36.7571 45.1262 36.9019C44.9327 37.0466 44.7122 37.1518 44.4779 37.2112C43.0157 37.59 41.4812 37.59 40.0191 37.2112C39.7847 37.1518 39.5642 37.0466 39.3707 36.9019C39.1769 36.7571 39.0137 36.5755 38.8904 36.3674C38.2934 35.3466 37.9847 34.1826 37.9979 32.9999Z" fill="url(#paint2_linear)"/>
<g filter="url(#filter0_i)">
<path d="M13.4954 32.9999C13.4954 29.9624 15.4042 27.5024 17.7479 27.5024C20.0992 27.5024 22.0004 29.9624 22.0004 32.9999C22.0004 34.2674 21.6667 35.4374 21.1079 36.3674C20.8582 36.787 20.4523 37.0904 19.9792 37.2112C19.4542 37.3499 18.6554 37.4999 17.7479 37.4999C16.8367 37.4999 16.0492 37.3499 15.5167 37.2112C15.0446 37.0903 14.64 36.7868 14.3917 36.3674C13.7934 35.3469 13.4836 34.1829 13.4954 32.9999ZM37.9979 32.9999C37.9979 29.9624 39.9029 27.5024 42.2466 27.5024C44.5979 27.5024 46.4991 29.9624 46.4991 32.9999C46.4991 34.2674 46.1654 35.4374 45.6066 36.3674C45.4832 36.5755 45.3201 36.7571 45.1262 36.9019C44.9327 37.0466 44.7122 37.1518 44.4779 37.2112C43.0157 37.59 41.4812 37.59 40.0191 37.2112C39.7847 37.1518 39.5642 37.0466 39.3707 36.9019C39.1769 36.7571 39.0137 36.5755 38.8904 36.3674C38.2934 35.3466 37.9847 34.1826 37.9979 32.9999Z" fill="black"/>
</g>
<path d="M17.3093 29.9458C17.7893 30.4146 17.8193 31.3408 17.3731 32.0121C16.9231 32.6796 16.1731 32.8446 15.6931 32.3721C15.2131 31.9033 15.1868 30.9771 15.6293 30.3096C16.0793 29.6383 16.8293 29.4771 17.3093 29.9458ZM41.6433 29.9458C42.1233 30.4146 42.1533 31.3408 41.7108 32.0121C41.2608 32.6796 40.5108 32.8446 40.0233 32.3721C39.547 31.9033 39.5208 30.9771 39.967 30.3096C40.4133 29.6383 41.1633 29.4771 41.6433 29.9458Z" fill="#4E506A"/>
<path d="M15.59 19.3222C16.835 18.7485 17.825 18.501 18.5937 18.501C19.6325 18.501 20.285 18.9472 20.6562 19.6485C21.3125 20.8822 21.0162 21.1522 19.9137 21.3697C15.7662 22.2097 11.6 24.9022 9.79249 26.5822C8.66374 27.6322 7.58374 26.4697 8.15749 25.5547C8.73499 24.6397 11.06 21.411 15.59 19.3222ZM39.3462 19.6485C39.7175 18.9472 40.37 18.501 41.4087 18.501C42.1812 18.501 43.1675 18.7485 44.4125 19.3222C48.9425 21.411 51.2675 24.6397 51.8412 25.5547C52.415 26.4697 51.3387 27.6322 50.21 26.5822C48.3987 24.9022 44.2362 22.2097 40.085 21.3697C38.9825 21.1522 38.6937 20.8822 39.3462 19.6485Z" fill="url(#paint3_linear)"/>
<path d="M50.625 60C47.52 60 45 57.195 45 53.7338C45 50.2763 46.335 47.94 47.4112 45.6825C49.6537 40.965 50.0963 40.3125 50.625 40.3125C51.1537 40.3125 51.5963 40.965 53.8388 45.6825C54.915 47.94 56.25 50.2763 56.25 53.7338C56.25 57.195 53.73 60 50.625 60Z" fill="url(#paint4_linear)"/>
<path d="M50.6259 51.0235C49.3959 51.0235 48.3984 49.9135 48.3984 48.5485C48.3984 47.176 48.9276 46.2497 49.3551 45.3535C50.2401 43.486 50.4159 43.231 50.6259 43.231C50.8359 43.231 51.0122 43.486 51.8972 45.3535C52.3247 46.2535 52.8534 47.176 52.8534 48.5447C52.8534 49.9135 51.8559 51.0235 50.6259 51.0235Z" fill="url(#paint5_linear)"/>
<defs>
<filter id="filter0_i" x="13.4951" y="27.5024" width="33.004" height="9.9975" filterUnits="userSpaceOnUse" color-interpolation-filters="sRGB">
<feFlood flood-opacity="0" result="BackgroundImageFix"/>
<feBlend mode="normal" in="SourceGraphic" in2="BackgroundImageFix" result="shape"/>
<feColorMatrix in="SourceAlpha" type="matrix" values="0 0 0 0 0 0 0 0 0 0 0 0 0 0 0 0 0 0 127 0" result="hardAlpha"/>
<feOffset/>
<feGaussianBlur stdDeviation="0.5"/>
<feComposite in2="hardAlpha" operator="arithmetic" k2="-1" k3="1"/>
<feColorMatrix type="matrix" values="0 0 0 0 0.0411227 0 0 0 0 0.0430885 0 0 0 0 0.0922353 0 0 0 0.819684 0"/>
<feBlend mode="normal" in2="shape" result="effect1_innerShadow"/>
</filter>
<linearGradient id="paint0_linear" x1="30" y1="6.15" x2="30" y2="60" gradientUnits="userSpaceOnUse">
<stop stop-color="#FEEA70"/>
<stop offset="1" stop-color="#F69B30"/>
</linearGradient>
<linearGradient id="paint1_linear" x1="30.0002" y1="41.25" x2="30.0002" y2="48.75" gradientUnits="userSpaceOnUse">
<stop stop-color="#472315"/>
<stop offset="1" stop-color="#8B3A0E"/>
</linearGradient>
<linearGradient id="paint2_linear" x1="29.9965" y1="27.5025" x2="29.9965" y2="37.5" gradientUnits="userSpaceOnUse">
<stop stop-color="#191A33"/>
<stop offset="0.872" stop-color="#3B426A"/>
</linearGradient>
<linearGradient id="paint3_linear" x1="30.0005" y1="18.5025" x2="30.0005" y2="26.9963" gradientUnits="userSpaceOnUse">
<stop stop-color="#E78E0D"/>
<stop offset="1" stop-color="#CB6000"/>
</linearGradient>
<linearGradient id="paint4_linear" x1="50.625" y1="56.4375" x2="50.625" y2="43.845" gradientUnits="userSpaceOnUse">
<stop stop-color="#35CAFC"/>
<stop offset="1" stop-color="#007EDB"/>
</linearGradient>
<linearGradient id="paint5_linear" x1="50.6252" y1="43.2298" x2="50.6252" y2="51.0223" gradientUnits="userSpaceOnUse">
<stop stop-color="#6AE1FF" stop-opacity="0.287"/>
<stop offset="1" stop-color="#A8E3FF" stop-opacity="0.799"/>
</linearGradient>
</defs>
</svg>
