<?xml version="1.0" standalone="no"?>
<!DOCTYPE svg PUBLIC "-//W3C//DTD SVG 20010904//EN"
 "http://www.w3.org/TR/2001/REC-SVG-20010904/DTD/svg10.dtd">
<svg version="1.0" xmlns="http://www.w3.org/2000/svg"
 width="1064.000000pt" height="1064.000000pt" viewBox="0 0 1064.000000 1064.000000"
 preserveAspectRatio="xMidYMid meet">
<metadata>
Created by potrace 1.14, written by Peter Selinger 2001-2017
</metadata>
<g transform="translate(0.000000,1064.000000) scale(0.100000,-0.100000)"
fill="#000000" stroke="none">
<path d="M1089 10638 c-4 -13 -2 -6888 2 -6888 10 0 2389 2381 2389 2391 0 5
4 9 9 9 5 0 142 -132 305 -292 162 -161 455 -450 649 -643 195 -192 441 -433
546 -535 106 -102 241 -232 300 -290 60 -58 206 -199 326 -315 120 -115 242
-234 272 -263 30 -29 60 -51 66 -49 7 2 20 0 29 -4 10 -6 19 -5 23 1 4 7 12 7
24 0 10 -5 21 -6 25 -3 8 8 74 8 82 0 3 -3 17 -2 30 3 15 6 24 6 24 0 0 -6 9
-6 24 0 13 5 27 6 30 3 7 -7 184 -5 196 2 5 3 11 1 15 -4 4 -7 15 -7 30 -1 16
6 25 6 25 0 0 -6 9 -6 24 0 13 5 26 6 29 4 7 -7 171 -9 183 -2 5 3 18 2 29 -2
11 -4 30 -4 43 1 14 5 22 5 22 -2 0 -6 5 -7 11 -3 17 10 51 11 77 2 13 -4 22
-4 22 2 0 6 9 6 25 0 14 -5 25 -6 25 -2 0 9 65 6 80 -3 6 -3 10 -1 10 5 0 6 4
8 10 5 13 -8 113 -10 126 -3 5 3 18 2 29 -2 11 -4 30 -4 43 1 14 5 22 5 22 -2
0 -6 5 -7 11 -4 15 10 80 12 85 3 3 -4 16 -3 29 2 16 6 25 6 25 0 0 -6 9 -6
24 0 13 5 26 6 29 4 7 -7 171 -9 183 -2 5 3 18 2 29 -2 11 -4 30 -4 43 1 14 5
22 5 22 -2 0 -6 5 -7 11 -3 17 10 51 11 77 2 13 -4 22 -4 22 2 0 6 9 6 25 0
14 -5 25 -6 25 -2 0 4 16 7 35 7 19 0 35 -4 35 -8 0 -4 9 -3 19 3 13 7 22 7
26 0 4 -6 13 -7 24 -1 9 5 23 6 30 1 8 -4 27 -4 42 0 17 5 31 5 35 -1 3 -6 10
-6 17 -1 7 5 21 6 32 2 11 -4 30 -4 42 1 13 5 25 4 29 -2 3 -6 10 -6 17 -1 7
5 21 6 32 2 11 -4 30 -4 43 1 14 5 22 5 22 -2 0 -6 5 -7 11 -3 17 10 51 11 77
2 13 -4 22 -4 22 2 0 6 9 6 25 0 14 -5 25 -6 25 -2 0 4 16 7 35 7 19 0 35 -4
35 -8 0 -4 9 -3 19 3 13 7 22 7 26 0 4 -6 13 -7 24 -1 9 5 23 6 30 1 8 -4 26
-4 41 0 16 5 32 4 38 -2 6 -6 12 -6 16 1 4 7 15 7 30 1 13 -5 26 -7 29 -4 9 9
62 11 85 2 12 -4 22 -4 22 2 0 5 12 5 28 1 15 -4 39 -4 55 0 15 4 27 3 27 -2
0 -6 8 -6 19 1 13 7 22 7 26 0 4 -7 12 -7 25 0 11 6 21 6 24 1 3 -5 21 -6 39
-1 18 4 43 3 55 -1 13 -5 22 -4 22 1 0 5 6 7 14 4 21 -8 106 -10 106 -2 0 4
11 3 25 -2 16 -6 25 -6 25 0 0 6 9 6 25 0 15 -6 27 -6 30 0 3 5 -531 545
-1186 1201 -1109 1108 -1249 1243 -1249 1199 0 -5 -13 -5 -29 0 -16 4 -32 6
-34 4 -9 -9 -62 -10 -84 -2 -14 4 -23 4 -23 -2 0 -6 -9 -6 -25 0 -14 5 -25 6
-25 2 0 -9 -65 -6 -80 3 -6 3 -10 2 -10 -4 0 -6 -11 -7 -27 -2 -16 4 -40 4
-55 0 -16 -4 -28 -3 -28 2 0 5 -10 5 -24 -1 -15 -5 -27 -5 -34 2 -6 6 -12 6
-16 -1 -5 -7 -15 -7 -31 -1 -15 6 -25 6 -25 0 0 -5 -12 -5 -27 -1 -16 4 -40 4
-55 0 -16 -4 -28 -3 -28 2 0 5 -10 5 -24 -1 -15 -5 -27 -5 -34 2 -6 6 -12 6
-16 -1 -5 -7 -15 -7 -31 -1 -15 6 -25 6 -25 0 0 -5 -12 -5 -27 -1 -16 4 -40 4
-55 0 -16 -4 -28 -3 -28 2 0 5 -10 5 -24 -1 -15 -5 -27 -5 -34 2 -6 6 -12 6
-16 -1 -5 -7 -15 -7 -31 -1 -15 6 -25 6 -25 0 0 -5 -12 -5 -27 -1 -16 4 -40 4
-55 0 -16 -4 -28 -3 -28 2 0 5 -10 5 -24 -1 -15 -5 -27 -5 -34 2 -6 6 -12 6
-16 -1 -5 -7 -15 -7 -31 -1 -17 6 -25 6 -25 -1 0 -6 -5 -7 -10 -4 -14 9 -155
9 -169 1 -6 -4 -11 -2 -11 4 0 7 -6 8 -19 0 -14 -7 -22 -7 -26 0 -4 6 -12 7
-18 3 -15 -9 -49 -9 -64 0 -6 4 -14 3 -18 -2 -3 -6 -15 -7 -28 -2 -12 5 -31 5
-42 1 -11 -4 -29 -4 -40 0 -11 4 -30 4 -42 -1 -14 -5 -23 -5 -23 2 0 6 -7 6
-19 -1 -14 -7 -22 -7 -26 0 -4 6 -12 7 -18 3 -6 -4 -21 -7 -32 -7 -11 0 -26 3
-32 7 -6 4 -14 3 -18 -2 -3 -7 -15 -7 -29 -1 -13 5 -26 6 -29 4 -8 -9 -81 -9
-94 -1 -6 4 -14 3 -18 -3 -4 -7 -12 -7 -25 0 -10 6 -21 7 -23 3 -6 -9 -59 -9
-73 0 -6 3 -16 2 -24 -3 -8 -5 -21 -5 -31 1 -11 6 -20 5 -24 -1 -3 -5 -15 -6
-28 -1 -12 5 -34 5 -49 0 -16 -4 -28 -4 -28 1 0 6 -10 6 -25 0 -15 -6 -26 -6
-30 0 -4 6 -13 7 -23 1 -11 -6 -24 -6 -34 0 -10 6 -19 6 -23 0 -3 -7 -15 -7
-30 -1 -15 6 -27 6 -30 0 -3 -6 -15 -6 -30 0 -15 6 -25 6 -25 0 0 -5 -12 -5
-28 -1 -15 5 -37 5 -49 0 -13 -5 -25 -4 -28 1 -4 6 -13 7 -23 1 -11 -6 -24 -6
-34 0 -10 6 -19 6 -23 0 -4 -7 -15 -7 -30 -1 -15 6 -25 6 -25 0 0 -5 -12 -5
-28 -1 -15 5 -37 5 -49 0 -13 -5 -25 -4 -28 1 -4 6 -13 7 -23 1 -11 -6 -24 -6
-34 0 -10 6 -19 6 -23 0 -4 -7 -15 -7 -30 -1 -17 6 -25 6 -25 -1 0 -6 -5 -7
-11 -3 -13 8 -158 8 -166 0 -3 -2 -16 -1 -29 4 -14 6 -24 6 -24 0 0 -5 -12 -5
-30 0 -16 5 -30 5 -30 2 0 -9 -64 -7 -79 2 -5 4 -12 2 -16 -3 -3 -7 -15 -7
-30 -1 -15 6 -27 6 -30 0 -3 -5 -13 -6 -21 -3 -9 3 -25 6 -36 7 -21 1 -21 1
-22 1024 -1 675 2 1022 9 1022 6 0 4 4 -4 9 -30 19 -1 22 174 22 55 -1 136 -1
180 0 44 0 85 -1 90 -2 6 -1 13 -1 16 -1 3 1 24 1 45 2 36 1 87 1 334 0 47 -1
105 0 130 1 25 1 51 1 58 1 22 -2 205 -2 290 -1 46 1 85 -1 88 -3 2 -3 23 -2
47 1 23 4 55 4 71 1 16 -3 61 -3 100 0 39 3 87 3 106 0 19 -3 49 -3 66 1 18 3
36 4 42 0 6 -3 48 -4 94 -1 45 3 99 3 118 0 19 -3 49 -3 66 1 18 3 36 4 42 0
6 -3 48 -4 94 -1 45 3 99 3 118 0 19 -3 49 -3 66 1 18 3 36 4 42 0 6 -3 48 -4
94 -1 45 3 99 3 118 0 19 -3 49 -3 66 1 18 3 36 4 42 0 6 -3 48 -4 94 -1 45 3
99 3 118 0 19 -3 49 -3 66 1 18 3 36 4 42 0 6 -3 48 -4 94 -1 45 3 99 3 118 0
19 -3 49 -3 66 1 18 3 36 4 42 0 6 -3 48 -4 94 -1 45 3 99 3 118 0 19 -3 49
-3 66 1 18 3 36 4 42 0 6 -3 48 -4 94 -1 45 3 99 3 118 0 19 -3 49 -3 66 1 18
3 36 4 42 0 5 -3 54 -4 107 -1 53 3 99 2 102 -3 2 -4 8 -5 12 -3 11 7 31 8
381 6 47 -1 105 0 130 1 25 1 51 1 58 1 17 -1 193 -2 287 -1 44 0 85 -1 90 -2
6 -1 13 -1 16 -1 3 1 24 1 45 2 36 1 87 1 334 0 47 -1 105 0 130 1 25 1 51 1
58 1 6 -1 58 -1 115 -1 56 0 119 0 140 -1 l37 -1 0 1201 0 1200 -4260 0
c-2343 0 -4260 -1 -4261 -2z"/>
<path d="M2950 5080 c0 -5 -6 -7 -13 -4 -10 3 -14 -4 -15 -27 0 -17 -3 -33 -6
-36 -2 -3 -1 -16 4 -29 6 -16 6 -24 -1 -24 -6 0 -7 -5 -3 -12 4 -7 7 -49 5
-93 -1 -44 -2 -87 -2 -95 2 -72 1 -102 -3 -109 -3 -5 9 -9 27 -9 17 0 34 -1
37 -2 14 -4 100 -4 100 0 0 3 23 5 50 5 28 0 50 -4 50 -8 0 -4 8 -3 18 2 10 5
24 6 30 2 13 -8 81 -5 90 4 3 2 11 0 18 -6 8 -7 14 -7 19 0 9 15 10 104 2 118
-4 6 -4 14 1 17 5 3 7 20 5 38 -4 33 -4 59 1 111 1 16 -1 30 -6 33 -5 3 -5 10
-1 17 10 16 10 58 0 64 -4 2 -3 11 3 18 14 17 0 26 -42 25 -18 0 -62 0 -98 0
-81 1 -76 1 -157 0 -38 -1 -78 1 -90 4 -13 3 -23 1 -23 -4z"/>
<path d="M3566 5083 c-3 -4 -24 -6 -46 -5 l-38 3 0 -53 c0 -29 -1 -57 -2 -63
-1 -5 -1 -12 0 -15 6 -16 4 -70 -3 -70 -5 0 -5 -6 0 -12 8 -14 8 -110 -1 -133
-3 -8 -1 -17 3 -20 5 -3 5 -20 1 -39 l-7 -33 49 0 c27 0 51 -3 55 -6 3 -4 14
-2 24 3 10 6 20 6 23 2 3 -5 26 -6 50 -2 25 4 51 3 58 -1 6 -4 20 -3 29 2 11
5 20 5 23 0 3 -5 21 -6 39 -1 18 4 42 3 54 -1 15 -5 25 -3 34 7 13 16 19 133
6 141 -4 2 -3 12 2 22 5 9 6 23 2 30 -5 7 -5 28 -1 47 5 20 4 34 -2 34 -5 0
-6 5 -2 12 9 14 8 103 -1 118 -3 5 -1 10 5 10 6 0 8 5 5 10 -4 6 -32 10 -63
10 -31 0 -66 0 -77 0 -130 1 -159 1 -166 6 -4 2 -11 0 -14 -6 -5 -8 -11 -8
-19 -1 -7 6 -16 8 -20 4z"/>
<path d="M2932 4521 c-14 -8 -19 -114 -7 -151 4 -12 2 -20 -5 -20 -6 0 -8 -5
-5 -10 9 -14 9 -206 0 -220 -3 -5 -1 -10 5 -10 6 0 8 -5 5 -10 -8 -13 37 -31
49 -20 4 4 20 4 35 0 15 -4 35 -4 44 1 9 6 18 5 21 0 4 -6 18 -6 36 -1 19 5
30 5 30 -1 0 -6 5 -7 10 -4 14 9 103 10 116 2 5 -3 16 -2 24 3 8 5 21 5 31 0
12 -7 21 -5 29 5 14 17 20 74 8 81 -5 3 -5 11 -1 17 10 16 10 107 0 107 -5 0
-5 4 -2 10 9 15 12 80 4 80 -4 0 -4 12 0 28 5 15 4 37 0 50 -5 13 -5 22 2 22
6 0 6 7 -1 20 -6 11 -15 18 -21 15 -5 -4 -9 -2 -9 2 0 9 -91 8 -114 0 -7 -3
-19 -1 -26 3 -8 5 -22 4 -32 -1 -12 -6 -18 -6 -18 0 0 7 -8 7 -22 2 -13 -5
-32 -5 -43 -1 -11 4 -30 3 -43 -1 -13 -5 -21 -5 -18 0 4 5 -9 6 -29 1 -19 -4
-35 -4 -37 1 -2 5 -9 5 -16 0z"/>
<path d="M3510 4519 c0 -5 -8 -6 -17 -2 -10 3 -15 3 -11 -1 3 -4 2 -21 -2 -37
-5 -16 -6 -29 -2 -29 4 0 7 -23 7 -50 0 -28 -3 -50 -6 -50 -3 0 -5 -10 -3 -22
1 -13 3 -23 4 -23 6 0 5 -75 -1 -102 -4 -18 -4 -33 0 -33 11 0 8 -74 -3 -81
-5 -4 14 -8 43 -10 28 -2 51 -1 51 3 0 4 14 3 30 -2 17 -5 30 -6 30 -2 0 4 27
7 60 7 33 0 60 -3 60 -7 0 -4 13 -3 30 2 17 5 32 5 35 0 3 -5 15 -6 28 -1 13
5 30 5 38 1 8 -5 20 -5 27 -1 13 8 22 111 10 111 -4 0 -5 6 -2 13 9 23 10 98
2 103 -5 3 -4 13 1 23 5 9 6 23 2 30 -5 7 -5 28 -1 47 5 20 4 37 -2 40 -5 4
-5 11 2 19 13 15 1 49 -20 53 -8 2 -48 3 -87 3 -40 -1 -81 -1 -90 -1 -10 0
-27 0 -38 0 -11 -1 -27 -1 -35 0 -8 0 -26 0 -40 -1 -34 -1 -40 -1 -72 4 -16 2
-28 1 -28 -4z"/>
<path d="M1228 2404 c-3 -3 -47 -5 -97 -5 l-91 0 0 -1199 0 -1200 4282 2 4282
3 0 1195 0 1195 -35 2 c-18 0 -47 2 -64 3 -38 2 -314 2 -375 -1 -25 -1 -49 -1
-55 -1 -5 0 -62 1 -125 1 -116 0 -140 0 -162 2 -7 0 -51 0 -98 -1 -47 0 -118
-1 -158 0 -40 1 -77 -2 -82 -5 -6 -3 -10 -2 -10 3 0 6 -14 7 -34 2 -19 -4 -37
-6 -40 -3 -2 3 -37 4 -78 3 -76 -1 -126 -1 -241 0 -37 1 -72 -2 -77 -5 -6 -3
-10 -2 -10 3 0 6 -14 7 -32 3 -18 -4 -49 -4 -68 -1 -19 3 -57 3 -85 0 -27 -3
-86 -3 -130 0 -44 3 -99 2 -122 -1 -24 -3 -43 -3 -43 2 0 4 -16 3 -34 -1 -19
-4 -37 -6 -40 -3 -2 3 -37 4 -78 3 -40 0 -95 -1 -123 -1 -27 0 -84 0 -125 0
-41 0 -82 0 -90 0 -84 2 -133 0 -141 -4 -5 -4 -9 -2 -9 3 0 6 -14 7 -34 2 -19
-4 -37 -6 -40 -3 -2 3 -37 4 -78 3 -79 -1 -94 -1 -318 0 -83 1 -155 -2 -160
-5 -6 -3 -10 -2 -10 3 0 6 -14 7 -34 2 -19 -4 -37 -6 -40 -3 -2 3 -37 4 -78 3
-40 0 -95 -1 -123 -1 -27 0 -84 0 -125 0 -41 0 -82 0 -90 0 -84 2 -133 0 -141
-4 -5 -4 -9 -2 -9 3 0 6 -14 7 -34 2 -19 -4 -37 -6 -40 -3 -2 3 -37 4 -78 3
-40 0 -95 -1 -123 -1 -27 0 -106 0 -175 0 -121 0 -136 0 -162 2 -7 0 -51 0
-98 -1 -47 0 -118 -1 -158 0 -40 1 -77 -2 -82 -5 -6 -3 -10 -2 -10 3 0 6 -14
7 -34 2 -19 -4 -37 -6 -40 -3 -2 3 -37 4 -78 3 -76 -1 -126 -1 -241 0 -37 1
-72 -2 -77 -5 -6 -3 -10 -1 -10 5 0 6 -5 8 -11 5 -5 -4 -34 -6 -62 -5 -64 1
-49 1 -187 1 -63 0 -122 0 -130 0 -50 1 -323 0 -360 -2 -25 -1 -49 -1 -55 -1
-5 0 -62 1 -125 1 -116 0 -140 0 -162 2 -7 0 -51 0 -98 -1 -47 0 -118 -1 -158
0 -40 1 -77 -2 -82 -5 -6 -3 -10 -2 -10 3 0 6 -14 7 -34 2 -19 -4 -37 -6 -40
-3 -2 3 -37 4 -78 3 -76 -1 -126 -1 -241 0 -37 1 -72 -2 -77 -5 -6 -3 -10 -1
-10 5 0 6 -5 8 -11 5 -5 -4 -34 -6 -62 -5 -64 1 -49 1 -187 1 -63 0 -122 0
-130 0 -8 0 -80 0 -160 0 -80 0 -154 0 -165 0 -11 0 -69 0 -128 -1 -60 0 -112
2 -116 5 -5 2 -11 2 -13 -1z"/>
</g>
</svg>
