<svg width="638" height="381" viewBox="0 0 638 381" fill="none" xmlns="http://www.w3.org/2000/svg">
<g clip-path="url(#clip0)">
<path d="M77.0978 380.052L76.0029 379.811C88.2107 326.767 118.89 278.599 162.389 244.178C195.276 218.196 234.389 200.819 276.047 193.683C317.705 186.547 360.536 189.887 400.508 203.39C440.48 216.892 476.277 240.112 504.528 270.863C532.78 301.613 552.557 338.884 561.997 379.164L560.904 379.407C535.062 268.545 435.618 191.118 319.075 191.118C204.059 191.118 102.293 270.576 77.0978 380.052Z" fill="#3F3D56"/>
<path d="M234.064 67.881C250.896 67.881 264.542 54.5488 264.542 38.1026C264.542 21.6565 250.896 8.32422 234.064 8.32422C217.232 8.32422 203.586 21.6565 203.586 38.1026C203.586 54.5488 217.232 67.881 234.064 67.881Z" fill="#F5A962"/>
<path d="M102.759 373.288C103.71 376.721 106.965 378.847 106.965 378.847C106.965 378.847 108.68 375.407 107.73 371.974C106.779 368.541 103.523 366.415 103.523 366.415C103.523 366.415 101.809 369.854 102.759 373.288Z" fill="#125D98"/>
<path d="M104.156 372.55C106.764 375.031 107.083 378.844 107.083 378.844C107.083 378.844 103.173 378.635 100.565 376.155C97.9563 373.674 97.6377 369.86 97.6377 369.86C97.6377 369.86 101.548 370.069 104.156 372.55Z" fill="#125D98"/>
<path d="M175.144 373.288C176.095 376.721 179.351 378.847 179.351 378.847C179.351 378.847 181.065 375.407 180.115 371.974C179.164 368.541 175.909 366.415 175.909 366.415C175.909 366.415 174.194 369.854 175.144 373.288Z" fill="#125D98"/>
<path d="M176.541 372.55C179.15 375.031 179.468 378.844 179.468 378.844C179.468 378.844 175.558 378.635 172.95 376.155C170.342 373.674 170.023 369.86 170.023 369.86C170.023 369.86 173.933 370.069 176.541 372.55Z" fill="#125D98"/>
<path d="M189.498 99.8277L178.037 90.8693L242.215 34.8823H404.952V84.151L299.517 153.575L189.498 99.8277Z" fill="#125D98"/>
<path d="M434.624 66.2878V36.0008H413.017V43.4181L404.953 34.8823L352.235 90.8693L331.606 104.306L299.621 332.633L347.859 379.764H459.963V93.1089L434.624 66.2878Z" fill="#CCCCCC"/>
<path d="M352.235 90.8691H178.038V379.763H352.235V90.8691Z" fill="#F2F2F2"/>
<path d="M277.743 309.219H245.654V379.763H277.743V309.219Z" fill="#CCCCCC"/>
<path d="M211.272 329.375V318.177H197.52V329.375H210.126H211.272Z" fill="#125D98"/>
<path d="M210.126 338.333H197.52V349.53H211.272V338.333H210.126Z" fill="#125D98"/>
<path d="M234.193 318.177H220.441V329.375H234.193V318.177Z" fill="#125D98"/>
<path d="M234.193 338.333H220.441V349.53H234.193V338.333Z" fill="#125D98"/>
<path d="M305.247 329.375V318.177H291.495V329.375H304.101H305.247Z" fill="#125D98"/>
<path d="M304.101 338.333H291.495V349.53H305.247V338.333H304.101Z" fill="#125D98"/>
<path d="M328.168 318.177H314.416V329.375H328.168V318.177Z" fill="#125D98"/>
<path d="M328.168 338.333H314.416V349.53H328.168V338.333Z" fill="#125D98"/>
<path d="M401.515 105.426V94.229H387.762V105.426H400.369H401.515Z" fill="#125D98"/>
<path d="M400.369 114.384H387.762V125.581H401.515V114.384H400.369Z" fill="#125D98"/>
<path d="M424.436 94.2285H410.683V105.426H424.436V94.2285Z" fill="#125D98"/>
<path d="M424.436 114.384H410.683V125.581H424.436V114.384Z" fill="#125D98"/>
<path d="M401.515 168.132V156.934H387.762V168.132H400.369H401.515Z" fill="#125D98"/>
<path d="M400.369 177.089H387.762V188.287H401.515V177.089H400.369Z" fill="#125D98"/>
<path d="M424.436 156.934H410.683V168.132H424.436V156.934Z" fill="#125D98"/>
<path d="M424.436 177.09H410.683V188.287H424.436V177.09Z" fill="#125D98"/>
<path d="M401.515 230.837V219.64H387.762V230.837H400.369H401.515Z" fill="#125D98"/>
<path d="M400.369 239.795H387.762V250.993H401.515V239.795H400.369Z" fill="#125D98"/>
<path d="M424.436 219.64H410.683V230.838H424.436V219.64Z" fill="#125D98"/>
<path d="M424.436 239.795H410.683V250.993H424.436V239.795Z" fill="#125D98"/>
<path d="M401.515 293.543V282.346H387.762V293.543H400.369H401.515Z" fill="#125D98"/>
<path d="M400.369 302.501H387.762V313.698H401.515V302.501H400.369Z" fill="#125D98"/>
<path d="M424.436 282.346H410.683V293.543H424.436V282.346Z" fill="#125D98"/>
<path d="M424.436 302.501H410.683V313.698H424.436V302.501Z" fill="#125D98"/>
<path d="M330.46 105.426H197.52V132.3H330.46V105.426Z" fill="#125D98"/>
<path d="M330.46 159.174H197.52V186.048H330.46V159.174Z" fill="#125D98"/>
<path d="M330.46 212.921H197.52V239.795H330.46V212.921Z" fill="#125D98"/>
<path d="M330.46 266.669H197.52V293.543H330.46V266.669Z" fill="#125D98"/>
<path d="M638 378.636H0V379.733H638V378.636Z" fill="#3F3D56"/>
<path d="M110.138 252.037H106.841V379.261H110.138V252.037Z" fill="#3F3D56"/>
<path d="M140.56 268.25C140.77 312.737 108.736 348.946 108.736 348.946C108.736 348.946 76.3622 313.027 76.1524 268.54C75.9426 224.053 107.976 187.844 107.976 187.844C107.976 187.844 140.351 223.763 140.56 268.25Z" fill="#3C8DAD"/>
<path opacity="0.1" d="M140.56 268.25C140.77 312.737 108.736 348.946 108.736 348.946C108.736 348.946 76.3622 313.027 76.1524 268.54C75.9426 224.053 107.976 187.844 107.976 187.844C107.976 187.844 140.351 223.763 140.56 268.25Z" fill="#3C8DAD"/>
<path d="M67.2833 252.037H63.9868V379.261H67.2833V252.037Z" fill="#3F3D56"/>
<path d="M97.7059 268.25C97.9158 312.737 65.8819 348.946 65.8819 348.946C65.8819 348.946 33.5077 313.027 33.2979 268.54C33.0881 224.053 65.1219 187.844 65.1219 187.844C65.1219 187.844 97.4961 223.763 97.7059 268.25Z" fill="#3C8DAD"/>
<path d="M530.575 90.6896C504.608 90.8065 483.472 91.1814 483.472 91.1814C483.472 91.1814 508.595 58.666 530.481 70.7127C552.366 82.7594 577.507 90.7579 577.507 90.7579C577.507 90.7579 556.542 90.5727 530.575 90.6896Z" fill="#F2F2F2"/>
<path d="M97.947 153.19C71.9799 153.307 50.8438 153.682 50.8438 153.682C50.8438 153.682 75.9674 121.167 97.8528 133.213C119.738 145.26 144.879 153.258 144.879 153.258C144.879 153.258 123.914 153.073 97.947 153.19Z" fill="#F2F2F2"/>
<path d="M192.216 22.7062C166.249 22.8231 145.113 23.198 145.113 23.198C145.113 23.198 170.236 -9.31736 192.122 2.72934C214.007 14.776 239.148 22.7745 239.148 22.7745C239.148 22.7745 218.183 22.5893 192.216 22.7062Z" fill="#F2F2F2"/>
<path d="M584.08 252.037H580.784V379.261H584.08V252.037Z" fill="#3F3D56"/>
<path d="M614.503 268.25C614.713 312.737 582.679 348.946 582.679 348.946C582.679 348.946 550.305 313.027 550.095 268.54C549.885 224.053 581.919 187.844 581.919 187.844C581.919 187.844 614.293 223.763 614.503 268.25Z" fill="#3C8DAD"/>
<path d="M462.742 300.291H496.01V292.445H514.365V300.291H548.781V335.038H514.365V378.752H496.01V335.038H462.742L445.534 315.983L462.742 300.291Z" fill="#125D98"/>
</g>
<defs>
<clipPath id="clip0">
<rect width="638" height="380" fill="white" transform="translate(0 0.0522461)"/>
</clipPath>
</defs>
</svg>
