<?xml version="1.0" encoding="utf-8"?>
<svg viewBox="176.045 56.604 214.17 266" xmlns="http://www.w3.org/2000/svg">
  <g transform="matrix(0.1, 0, 0, -0.1, 168.044512, 332.603948)" fill="#000000" stroke="none">
    <path d="M 91.703 1898 L 91.703 1035 L 390.703 1334 L 689.703 1633 L 691.703 1640 L 691.703 2160 L 1456.703 2160 L 2221.703 2160 L 2221.703 2460 L 2221.703 2760 L 1156.703 2760 L 91.703 2760 L 91.703 1898 Z" style="fill: rgb(18, 93, 152);"/>
    <path d="M 997.703 1337 L 1304.703 1040 L 1760.703 1040 L 2216.703 1040 L 1916.703 1340 L 1616.703 1640 L 1154.703 1640 L 691.703 1640" style="fill: rgb(60, 141, 173);"/>
    <path d="M550 1315 l0 -55 55 0 55 0 0 55 0 55 -55 0 -55 0 0 -55z" style="fill: rgb(245, 169, 98);"/>
    <path d="M690 1315 l0 -55 55 0 55 0 0 55 0 55 -55 0 -55 0 0 -55z" style="fill: rgb(245, 169, 98);"/>
    <path d="M550 1175 l0 -55 55 0 55 0 0 55 0 55 -55 0 -55 0 0 -55z" style="fill: rgb(245, 169, 98);"/>
    <path d="M 690 1175 L 690 1120 L 745 1120 L 800 1120 L 800 1175 L 800 1230 L 745 1230 L 690 1230 L 690 1175 Z" transform="matrix(0, 1, -1, 0, 1920, 430)" style="fill: rgb(245, 169, 98);"/>
    <path d="M80 400 l0 -300 1070 0 1070 0 0 300 0 300 -1070 0 -1070 0 0 -300z" style="fill: rgb(18, 93, 152);"/>
  </g>
</svg>